# xmcd
#
# Track frame offsets:
#	150
#	13597
#	29571
#	52596
#	70344
#	74810
#	119368
#	128425
#	144897
#	162743
#	177290
#	188727
#	200781
#
# Disc length: 2836 seconds
#
# Revision: 6
# Processed by: cddbd v1.5.2PL0 Copyright (c) Steve Scherf et al.
# Submitted via: EZCDAudioConverter 2.1.7.1
#
DISCID=bd0b120d
DTITLE=V/A - Let It Be Revisited
DYEAR=2010
DGENRE=MOJO
TTITLE0=John Grant - Two Of Us
TTITLE1=Dennis Locorriere - Dig A Pony
TTITLE2=Phosphorescent - Across The Universe
TTITLE3=Beth Orton - I Me Mine
TTITLE4=Beth Orton - Dig It
TTITLE5=Amorphous Androgynous - Let It Be
TTITLE6=C.W. Stoneking - Maggie Mae
TTITLE7=Besnard Lakes - I've Got A Feeling
TTITLE8=James Apollo - One After 909
TTITLE9=Judy Collins - The Long And Winding Road
TTITLE10=Pete Molinari - For You Blue
TTITLE11=Jim Jones Revue - Get Back
TTITLE12=Wilko Johnson - One After 909
EXTD=
EXTT0=
EXTT1=
EXTT2=
EXTT3=
EXTT4=
EXTT5=
EXTT6=
EXTT7=
EXTT8=
EXTT9=
EXTT10=
EXTT11=
EXTT12=
PLAYORDER=
